<?xml version="1.0" encoding="utf-8"?>
<!-- Generator: Adobe Illustrator 15.1.0, SVG Export Plug-In . SVG Version: 6.00 Build 0)  -->
<!DOCTYPE svg PUBLIC "-//W3C//DTD SVG 1.1//EN" "http://www.w3.org/Graphics/SVG/1.1/DTD/svg11.dtd">
<svg version="1.1" xmlns="http://www.w3.org/2000/svg" xmlns:xlink="http://www.w3.org/1999/xlink" x="0px" y="0px"
	 width="77.727px" height="77.5px" viewBox="0 0 77.727 77.5" enable-background="new 0 0 77.727 77.5" xml:space="preserve">
<g id="Layer_1">
	<g>
		<path fill="#0E986E" d="M38.863,0C17.434,0,0,17.434,0,38.863c0,21.43,17.434,38.864,38.863,38.864
			c21.43,0,38.864-17.434,38.864-38.864C77.727,17.434,60.293,0,38.863,0L38.863,0z M38.863,69.457
			c-16.867,0-30.593-13.723-30.593-30.594C8.27,21.992,21.996,8.27,38.863,8.27c16.872,0,30.598,13.722,30.598,30.593
			C69.461,55.734,55.734,69.457,38.863,69.457L38.863,69.457z M38.863,69.457"/>
		<path fill="#0E986E" d="M59.117,37.664H41.652v-21c0-1.766-1.43-3.199-3.199-3.199c-1.765,0-3.199,1.433-3.199,3.199v24.199
			c0,1.77,1.434,3.199,3.199,3.199h20.664c1.77,0,3.203-1.43,3.203-3.199C62.32,39.098,60.887,37.664,59.117,37.664L59.117,37.664z
			 M59.117,37.664"/>
	</g>
</g>
<g id="Layer_2">
</g>
</svg>
