<?xml version="1.0" encoding="utf-8"?><!DOCTYPE svg PUBLIC "-//W3C//DTD SVG 1.1//EN" "http://www.w3.org/Graphics/SVG/1.1/DTD/svg11.dtd"><svg width="1404" height="964" viewBox="0 0 1404 964" xmlns="http://www.w3.org/2000/svg" xmlns:xlink="http://www.w3.org/1999/xlink"><view id="angle-down" viewBox="0 0 340 532"/><svg viewBox="-10 -10 340 532" width="340" height="532" xmlns="http://www.w3.org/2000/svg"><path d="M143 352.3L7 216.3c-9.4-9.4-9.4-24.6 0-33.9l22.6-22.6c9.4-9.4 24.6-9.4 33.9 0l96.4 96.4 96.4-96.4c9.4-9.4 24.6-9.4 33.9 0l22.6 22.6c9.4 9.4 9.4 24.6 0 33.9l-136 136c-9.2 9.4-24.4 9.4-33.8 0z"/></svg><view id="check" viewBox="0 532 432 432"/><svg width="432" height="432" viewBox="-68.5 -68.5 432 432" y="532" xmlns="http://www.w3.org/2000/svg"><path fill="#115499" d="M293.203 87.246L134.766 245.684c-4.395 4.395-10.254 6.797-16.465 6.797s-12.07-2.461-16.465-6.797L6.797 150.645c-9.082-9.082-9.082-23.848 0-32.871 9.082-9.082 23.848-9.082 32.93 0l78.574 78.516L260.215 54.316c9.082-9.082 23.848-9.082 32.871 0 9.199 9.141 9.199 23.848.117 32.93z"/></svg><view id="clock" viewBox="340 0 532 532"/><svg viewBox="-10 -10 532 532" width="532" height="532" x="340" xmlns="http://www.w3.org/2000/svg"><path fill="#E68717" d="M256 8C119 8 8 119 8 256s111 248 248 248 248-111 248-248S393 8 256 8zm0 448c-110.5 0-200-89.5-200-200S145.5 56 256 56s200 89.5 200 200-89.5 200-200 200zm61.8-104.4l-84.9-61.7c-3.1-2.3-4.9-5.9-4.9-9.7V116c0-6.6 5.4-12 12-12h32c6.6 0 12 5.4 12 12v141.7l66.8 48.6c5.4 3.9 6.5 11.4 2.6 16.8L334.6 349c-3.9 5.3-11.4 6.5-16.8 2.6z"/></svg><view id="search" viewBox="872 0 532 532"/><svg viewBox="-10 -10 532 532" width="532" height="532" x="872" xmlns="http://www.w3.org/2000/svg"><path d="M505 442.7L405.3 343c-4.5-4.5-10.6-7-17-7H372c27.6-35.3 44-79.7 44-128C416 93.1 322.9 0 208 0S0 93.1 0 208s93.1 208 208 208c48.3 0 92.7-16.4 128-44v16.3c0 6.4 2.5 12.5 7 17l99.7 99.7c9.4 9.4 24.6 9.4 33.9 0l28.3-28.3c9.4-9.4 9.4-24.6.1-34zM208 336c-70.7 0-128-57.2-128-128 0-70.7 57.2-128 128-128 70.7 0 128 57.2 128 128 0 70.7-57.2 128-128 128z"/></svg></svg>