<?xml version="1.0" encoding="utf-8"?>
<!-- Generator: Adobe Illustrator 15.1.0, SVG Export Plug-In . SVG Version: 6.00 Build 0)  -->
<!DOCTYPE svg PUBLIC "-//W3C//DTD SVG 1.1//EN" "http://www.w3.org/Graphics/SVG/1.1/DTD/svg11.dtd">
<svg version="1.1" xmlns="http://www.w3.org/2000/svg" xmlns:xlink="http://www.w3.org/1999/xlink" x="0px" y="0px" width="123.5px"
	 height="33px" viewBox="0 0 123.5 33" enable-background="new 0 0 123.5 33" xml:space="preserve">
<g id="Layer_1" display="none">
	<text transform="matrix(1 0 0 1 4.5684 35.668)" display="inline" font-family="'PalatinoLinotype-Roman'" font-size="37">-discount</text>
	<text transform="matrix(1 0 0 1 -50.3291 45)" display="inline" font-family="'PalatinoLinotype-Roman'" font-size="121">e</text>
</g>
<g id="Layer_1_copy" display="none">
	<g display="inline">
		<path fill="#5DADD9" d="M46.563,9.724V9.268l0.087-0.099c1.384-0.159,2.551-0.427,3.501-0.805l0.207,0.131
			c-0.08,0.834-0.12,2.505-0.12,5.013v7.124c0,0.731,0.013,1.371,0.038,1.919c0.025,0.547,0.071,0.871,0.136,0.973
			c0.065,0.103,0.172,0.185,0.321,0.25c0.148,0.065,0.57,0.127,1.267,0.185l0.098,0.087v0.414L52,24.557
			c-0.783-0.051-1.392-0.076-1.827-0.076c-0.391,0-0.95,0.025-1.674,0.076l-0.12-0.12c0.021-0.71,0.033-1.206,0.033-1.489
			c0-0.036,0.003-0.174,0.011-0.413c-0.399,0.29-0.798,0.613-1.196,0.968c-0.587,0.522-0.972,0.848-1.153,0.979
			c-0.333,0.167-0.808,0.25-1.424,0.25c-1,0-1.851-0.246-2.55-0.739c-0.7-0.492-1.198-1.121-1.496-1.887
			c-0.297-0.765-0.446-1.55-0.446-2.354c0-0.818,0.154-1.607,0.462-2.365s0.747-1.311,1.315-1.658
			c0.569-0.348,1.189-0.709,1.86-1.082s1.335-0.56,1.995-0.56c0.921,0,1.798,0.228,2.632,0.685l-0.043-2.425
			c-0.015-0.841-0.037-1.427-0.065-1.756c-0.029-0.33-0.065-0.526-0.109-0.588s-0.118-0.106-0.223-0.136
			c-0.105-0.028-0.546-0.043-1.321-0.043L46.563,9.724z M48.422,16.629c-0.45-0.507-0.948-0.895-1.495-1.163
			s-1.097-0.402-1.647-0.402c-0.609,0-1.176,0.165-1.702,0.494c-0.526,0.33-0.905,0.819-1.137,1.469
			c-0.232,0.648-0.348,1.354-0.348,2.114c0,1.27,0.321,2.288,0.963,3.057c0.641,0.769,1.448,1.152,2.419,1.152
			c0.529,0,0.999-0.121,1.408-0.364c0.409-0.242,0.747-0.57,1.011-0.984c0.265-0.413,0.419-0.826,0.462-1.239
			c0.043-0.414,0.065-1.171,0.065-2.273V16.629z"/>
		<path fill="#5DADD9" d="M56.905,14.106l0.206,0.142c-0.08,0.949-0.12,2.156-0.12,3.621v2.458c0,0.159,0.015,0.672,0.044,1.538
			c0.028,0.866,0.06,1.372,0.093,1.517c0.032,0.146,0.081,0.251,0.146,0.315c0.065,0.065,0.145,0.107,0.239,0.125
			c0.094,0.019,0.485,0.049,1.175,0.093l0.098,0.087v0.457l-0.088,0.098c-0.906-0.059-1.779-0.087-2.62-0.087
			c-0.833,0-1.704,0.028-2.61,0.087l-0.098-0.098v-0.457l0.098-0.087c0.703-0.044,1.1-0.076,1.191-0.098s0.17-0.067,0.239-0.136
			c0.069-0.069,0.116-0.174,0.142-0.315c0.025-0.142,0.054-0.609,0.087-1.403c0.032-0.794,0.049-1.394,0.049-1.8v-2.142
			c0-0.291-0.015-0.686-0.043-1.186c-0.029-0.5-0.053-0.809-0.071-0.925c-0.018-0.115-0.075-0.201-0.168-0.255
			c-0.095-0.055-0.283-0.082-0.565-0.082l-0.914-0.011l-0.098-0.087v-0.468l0.087-0.087C54.787,14.755,55.954,14.483,56.905,14.106z
			 M55.98,9.245c0.341,0,0.63,0.12,0.87,0.359c0.238,0.239,0.358,0.529,0.358,0.87c0,0.333-0.12,0.619-0.358,0.858
			c-0.24,0.239-0.529,0.359-0.87,0.359c-0.333,0-0.622-0.118-0.865-0.354c-0.243-0.235-0.364-0.523-0.364-0.864
			s0.122-0.631,0.364-0.87C55.358,9.365,55.646,9.245,55.98,9.245z"/>
		<path fill="#5DADD9" d="M60.427,21.272h0.468l0.098,0.099c0.015,0.608,0.051,1.131,0.108,1.565
			c0.225,0.341,0.613,0.618,1.164,0.832c0.551,0.213,1.095,0.32,1.632,0.32c0.768,0,1.382-0.206,1.843-0.62
			c0.46-0.413,0.69-0.906,0.69-1.479c0-0.312-0.084-0.582-0.25-0.81c-0.167-0.229-0.419-0.418-0.756-0.565
			c-0.337-0.149-0.941-0.325-1.811-0.528c-0.747-0.174-1.269-0.31-1.565-0.407c-0.298-0.098-0.584-0.263-0.859-0.495
			c-0.275-0.231-0.486-0.517-0.631-0.853c-0.146-0.338-0.218-0.709-0.218-1.115c0-0.972,0.386-1.749,1.158-2.333
			s1.735-0.875,2.887-0.875c0.485,0,1.016,0.066,1.588,0.2c0.572,0.135,1.008,0.264,1.305,0.387l0.098,0.152
			c-0.058,0.29-0.094,1.051-0.108,2.283l-0.099,0.098h-0.434l-0.098-0.098c-0.029-0.441-0.07-0.752-0.121-0.93
			c-0.05-0.178-0.181-0.37-0.391-0.576c-0.211-0.207-0.508-0.381-0.892-0.521c-0.384-0.142-0.79-0.213-1.218-0.213
			c-0.442,0-0.813,0.065-1.114,0.196c-0.301,0.13-0.545,0.328-0.729,0.593c-0.186,0.265-0.277,0.585-0.277,0.962
			c0,0.275,0.056,0.522,0.168,0.739c0.112,0.219,0.284,0.394,0.517,0.528c0.231,0.134,0.475,0.229,0.729,0.288l1.186,0.305
			c1.015,0.246,1.741,0.46,2.18,0.641c0.439,0.182,0.778,0.455,1.017,0.821c0.24,0.366,0.359,0.811,0.359,1.333
			c0,1-0.413,1.858-1.239,2.576s-1.889,1.077-3.187,1.077c-0.457,0-1.023-0.051-1.702-0.153c-0.678-0.101-1.256-0.213-1.734-0.336
			l-0.055-0.142l0.109-0.729c0.036-0.225,0.058-0.451,0.064-0.68c0.008-0.229,0.016-0.708,0.022-1.44L60.427,21.272z"/>
		<path fill="#5DADD9" d="M78.207,23.306l-0.435,0.729c-0.936,0.515-1.979,0.771-3.132,0.771c-1.596,0-2.827-0.475-3.697-1.425
			c-0.87-0.949-1.306-2.175-1.306-3.675c0-0.682,0.074-1.289,0.224-1.822c0.148-0.532,0.337-0.973,0.565-1.321
			c0.229-0.348,0.48-0.623,0.756-0.826s0.741-0.485,1.397-0.848c0.655-0.363,1.15-0.601,1.484-0.713
			c0.333-0.112,0.794-0.168,1.381-0.168c1.123,0,2.044,0.214,2.762,0.642c-0.138,0.819-0.243,1.732-0.314,2.74l-0.099,0.086h-0.446
			L77.25,17.38c-0.029-0.609-0.069-1.019-0.119-1.229c-0.051-0.21-0.339-0.435-0.864-0.674s-1.087-0.359-1.68-0.359
			c-0.596,0-1.124,0.126-1.589,0.375c-0.464,0.251-0.813,0.66-1.049,1.229c-0.236,0.569-0.354,1.249-0.354,2.04
			c0,0.666,0.094,1.316,0.283,1.951c0.188,0.635,0.437,1.16,0.744,1.576c0.309,0.417,0.716,0.752,1.224,1.006
			c0.507,0.254,1.072,0.381,1.696,0.381c0.392,0,0.774-0.05,1.147-0.152c0.373-0.102,0.803-0.269,1.289-0.5L78.207,23.306z"/>
		<path fill="#5DADD9" d="M79.392,19.489c0-0.862,0.177-1.694,0.533-2.496c0.354-0.801,0.973-1.493,1.854-2.076
			c0.881-0.584,1.927-0.876,3.137-0.876c1.522,0,2.763,0.48,3.72,1.441c0.957,0.96,1.436,2.195,1.436,3.702
			c0,1.661-0.55,3.026-1.647,4.1c-1.099,1.073-2.424,1.61-3.975,1.61c-1.016,0-1.921-0.274-2.719-0.821
			c-0.798-0.548-1.387-1.217-1.767-2.007C79.583,21.276,79.392,20.417,79.392,19.489z M81.448,18.738
			c0,1.016,0.13,1.924,0.391,2.725c0.262,0.802,0.675,1.444,1.24,1.93c0.565,0.486,1.211,0.729,1.936,0.729
			c0.855,0,1.563-0.339,2.12-1.018c0.559-0.678,0.838-1.697,0.838-3.061c0-1.544-0.303-2.81-0.908-3.796
			c-0.605-0.985-1.478-1.479-2.615-1.479c-0.942,0-1.679,0.341-2.207,1.022C81.711,16.474,81.448,17.456,81.448,18.738z"/>
		<path fill="#5DADD9" d="M94.573,14.106l0.206,0.142c-0.079,0.949-0.119,2.156-0.119,3.621v2.533c0,0.929,0.07,1.574,0.212,1.936
			c0.142,0.363,0.386,0.64,0.734,0.832c0.348,0.192,0.762,0.289,1.24,0.289c0.528,0,1.011-0.104,1.445-0.311
			c0.436-0.206,0.8-0.499,1.093-0.875c0.294-0.377,0.463-0.631,0.506-0.762c0.044-0.13,0.072-0.496,0.087-1.098l0.033-1.219v-1.174
			c0-0.291-0.015-0.686-0.044-1.186c-0.028-0.5-0.053-0.809-0.07-0.925c-0.019-0.115-0.075-0.201-0.169-0.255
			c-0.094-0.055-0.282-0.082-0.565-0.082l-0.913-0.011l-0.098-0.087v-0.468l0.087-0.087c1.384-0.167,2.552-0.438,3.501-0.815
			l0.207,0.142c-0.08,0.949-0.12,2.156-0.12,3.621v1.914c0,0.109,0.019,0.996,0.055,2.664c0.015,0.616,0.052,0.991,0.114,1.125
			c0.062,0.135,0.146,0.229,0.255,0.283c0.109,0.054,0.432,0.082,0.968,0.082h0.305l0.098,0.087v0.435l-0.087,0.098
			c-1.021-0.059-1.707-0.087-2.055-0.087c-0.442,0-0.953,0.025-1.533,0.076l-0.098-0.087c0.043-0.739,0.076-1.366,0.098-1.882
			c-0.457,0.356-0.979,0.831-1.566,1.425c-0.225,0.225-0.547,0.414-0.967,0.565c-0.421,0.152-0.899,0.229-1.436,0.229
			c-0.813,0-1.445-0.129-1.898-0.386s-0.773-0.613-0.962-1.066s-0.283-1.233-0.283-2.343l0.012-0.859v-2.12
			c0-0.291-0.015-0.686-0.044-1.186s-0.053-0.809-0.071-0.925c-0.018-0.115-0.073-0.201-0.168-0.255
			c-0.095-0.055-0.282-0.082-0.565-0.082l-0.914-0.011l-0.098-0.087v-0.468l0.087-0.087C92.457,14.755,93.623,14.483,94.573,14.106z
			"/>
		<path fill="#5DADD9" d="M107.958,14.106l0.207,0.142c-0.044,0.485-0.073,1.123-0.087,1.913c0.579-0.479,1.131-0.964,1.652-1.457
			c0.152-0.138,0.296-0.239,0.43-0.305c0.134-0.064,0.357-0.134,0.669-0.206s0.631-0.108,0.957-0.108
			c0.551,0,1.085,0.112,1.604,0.337s0.909,0.491,1.175,0.799c0.265,0.309,0.447,0.673,0.549,1.093
			c0.102,0.421,0.152,0.939,0.152,1.556v1.914c0,0.123,0.019,1.025,0.054,2.707c0.015,0.689,0.092,1.099,0.229,1.229
			c0.137,0.131,0.587,0.195,1.348,0.195l0.087,0.087v0.468l-0.087,0.087c-0.92-0.059-1.544-0.087-1.87-0.087
			c-0.188,0-0.718,0.028-1.588,0.087l-0.13-0.12c0.094-0.941,0.141-2.171,0.141-3.686v-1.425c0-0.855-0.02-1.472-0.06-1.85
			c-0.04-0.376-0.161-0.719-0.364-1.027c-0.203-0.308-0.475-0.547-0.815-0.718c-0.341-0.17-0.747-0.255-1.218-0.255
			c-0.377,0-0.7,0.038-0.968,0.114c-0.269,0.076-0.569,0.231-0.902,0.467c-0.334,0.236-0.58,0.457-0.739,0.664
			c-0.16,0.206-0.256,0.399-0.289,0.576c-0.032,0.179-0.049,0.557-0.049,1.136v1.894c0,0.159,0.015,0.672,0.044,1.538
			c0.028,0.866,0.06,1.372,0.092,1.517c0.033,0.146,0.082,0.251,0.147,0.315c0.065,0.065,0.145,0.107,0.239,0.125
			c0.094,0.019,0.485,0.049,1.174,0.093l0.098,0.087v0.457l-0.087,0.098c-0.905-0.059-1.779-0.087-2.62-0.087
			c-0.834,0-1.703,0.028-2.61,0.087l-0.098-0.098v-0.457l0.098-0.087c0.703-0.044,1.101-0.076,1.191-0.098s0.17-0.067,0.239-0.136
			c0.068-0.069,0.115-0.174,0.141-0.315s0.055-0.609,0.087-1.403c0.033-0.794,0.049-1.394,0.049-1.8v-2.142
			c0-0.291-0.014-0.686-0.043-1.186s-0.053-0.809-0.07-0.925c-0.019-0.115-0.074-0.201-0.169-0.255
			c-0.094-0.055-0.283-0.082-0.565-0.082l-0.913-0.011l-0.098-0.087v-0.468l0.087-0.087
			C105.842,14.755,107.008,14.483,107.958,14.106z"/>
		<path fill="#5DADD9" d="M117.702,15.934V15.65l0.077-0.108c0.681-0.254,1.231-0.489,1.652-0.707c0-1.893-0.022-2.994-0.065-3.306
			c0.747-0.261,1.359-0.54,1.838-0.838l0.261,0.218c-0.072,0.457-0.159,1.783-0.261,3.98c0.362,0.007,0.754,0.011,1.174,0.011
			c0.855,0,1.468-0.022,1.839-0.065l0.075,0.076l-0.206,0.913l-0.087,0.098c-0.37-0.007-0.779-0.011-1.229-0.011
			c-0.406,0-0.928,0.004-1.565,0.011l-0.065,4.426c0,1.023,0.023,1.691,0.07,2.007s0.178,0.563,0.392,0.739
			c0.214,0.178,0.531,0.267,0.952,0.267c0.485,0,0.935-0.126,1.348-0.38l0.262,0.392c-0.175,0.123-0.591,0.485-1.251,1.087
			c-0.377,0.174-0.762,0.261-1.153,0.261c-1.63,0-2.446-0.79-2.446-2.371c0-0.579,0.015-1.072,0.044-1.479
			c0.007-0.123,0.011-0.25,0.011-0.381v-4.513h-0.446c-0.326,0-0.699,0.015-1.12,0.044L117.702,15.934z"/>
	</g>
	<g display="inline">
		<path fill="#5DADD9" d="M29.317,19.794v-0.152l0.49-1.457h5.817v0.163l-0.522,1.446H29.317z"/>
		<path fill="#E58725" d="M32.405,19.794v-0.152l0.25-1.457h2.969v0.163l-0.522,1.446H32.405z"/>
	</g>
	<g display="inline">
		<path fill="#F89935" d="M22.627,26.651l-1.012,2.276c-2.192,1.413-4.147,2.33-5.865,2.751c-1.718,0.421-3.252,0.632-4.6,0.632
			c-2.529,0-4.927-0.496-7.193-1.485c-2.266-0.991-4.11-2.666-5.532-5.027c-1.423-2.36-2.134-5.205-2.134-8.536
			c0-2.213,0.273-4.21,0.822-5.991c0.548-1.78,1.123-3.103,1.723-3.968c0.601-0.864,1.617-1.822,3.051-2.877
			C3.32,3.372,4.838,2.529,6.44,1.896s3.33-0.948,5.185-0.948c2.529,0,4.759,0.596,6.687,1.786c1.929,1.191,3.283,2.714,4.063,4.568
			c0.779,1.855,1.17,3.825,1.17,5.912c0,0.653-0.032,1.286-0.095,1.897l-0.348,0.348c-1.434,0.315-3.363,0.526-5.786,0.632
			c-2.424,0.105-4.026,0.158-4.806,0.158H2.362c0.042,4.363,1.138,7.577,3.288,9.643c2.15,2.065,4.785,3.099,7.904,3.099
			c1.475,0,2.893-0.253,4.252-0.759c1.36-0.506,2.798-1.212,4.316-2.118L22.627,26.651z M2.362,13.721
			c0.379,0.063,1.839,0.138,4.378,0.222s4.421,0.126,5.644,0.126c2.929,0,4.711-0.052,5.343-0.158
			c0.021-0.506,0.032-0.896,0.032-1.169c0-3.268-0.664-5.696-1.992-7.288c-1.328-1.591-3.141-2.387-5.438-2.387
			c-2.509,0-4.463,0.896-5.865,2.688C3.062,7.545,2.362,10.201,2.362,13.721z"/>
	</g>
</g>
<g id="Layer_3" display="none">
	<polygon display="inline" fill="#F7CE2C" stroke="#F89935" stroke-width="1.9513" stroke-miterlimit="10" points="66.886,18.503 
		73.292,17.167 65.208,14.333 69.958,9.25 63,9.737 62.458,5 58.298,8.947 53.625,2.917 53.209,10.397 47.968,10.153 50.451,13.784 
		44.792,18.417 51.434,20.712 49.042,23.417 53.072,24.109 54.208,28.667 58.542,25 62.292,30.75 64.417,24.896 70.208,26.667 	"/>
	<text transform="matrix(1 0 0 1 -1.542 26)" display="inline" fill="#166692" font-family="'MyriadPro-Bold'" font-size="26">BomBonus</text>
</g>
<g id="Layer_3_copy">
	<g>
		<polygon fill="#F7CE2C" points="66.886,18.503 73.292,17.167 65.208,14.333 69.958,9.25 63,9.737 62.458,5 58.298,8.947 
			53.625,2.917 53.209,10.397 47.968,10.153 50.451,13.784 44.792,18.417 51.434,20.712 49.042,23.417 53.072,24.109 54.208,28.667 
			58.542,25 62.292,30.75 64.417,24.896 70.208,26.667 		"/>
		<path fill="#F89935" d="M62.542,32.92l-4.214-6.461l-4.687,3.966l-1.361-5.462l-5.128-0.882l2.586-2.923l-6.915-2.39l6.319-5.172
			l-3.083-4.508l6.231,0.29l0.507-9.124l5.613,7.244l4.797-4.551l0.658,5.752l8.501-0.595l-5.423,5.804l9.981,3.498l-8.692,1.814
			l3.655,8.981L65.017,26.1L62.542,32.92z M58.755,23.542l3.286,5.039l1.774-4.889l4.715,1.442l-2.989-7.347l4.118-0.859
			l-6.185-2.168l4.077-4.363l-5.415,0.379l-0.426-3.722l-3.523,3.343L54.454,5.58l-0.324,5.837l-4.251-0.198l1.883,2.753l-5,4.093
			l6.369,2.202l-2.198,2.485l2.933,0.504l0.91,3.653L58.755,23.542z"/>
	</g>
	<g>
		<path fill="#166692" d="M0.174,8.709c1.04-0.208,3.146-0.364,5.122-0.364c2.418,0,3.9,0.234,5.174,0.988
			c1.222,0.65,2.106,1.846,2.106,3.432c0,1.56-0.91,3.016-2.886,3.744v0.052c2.002,0.546,3.484,2.054,3.484,4.316
			c0,1.586-0.728,2.834-1.82,3.718c-1.274,1.014-3.406,1.586-6.89,1.586c-1.95,0-3.406-0.13-4.29-0.26V8.709z M4.1,15.417h1.3
			c2.08,0,3.198-0.858,3.198-2.158c0-1.326-1.014-2.028-2.808-2.028c-0.858,0-1.353,0.052-1.69,0.104V15.417z M4.1,23.192
			c0.39,0.052,0.858,0.052,1.534,0.052c1.794,0,3.38-0.676,3.38-2.522c0-1.768-1.586-2.47-3.562-2.47H4.1V23.192z"/>
		<path fill="#166692" d="M28.462,19.5c0,4.654-3.302,6.786-6.708,6.786c-3.718,0-6.579-2.444-6.579-6.552
			c0-4.108,2.704-6.734,6.787-6.734C25.862,13,28.462,15.678,28.462,19.5z M19.258,19.63c0,2.184,0.91,3.822,2.6,3.822
			c1.534,0,2.522-1.534,2.522-3.822c0-1.898-0.728-3.822-2.522-3.822C19.96,15.808,19.258,17.758,19.258,19.63z"/>
		<path fill="#166692" d="M30.905,17.342c0-1.586-0.052-2.938-0.104-4.056h3.328l0.182,1.716h0.078
			C34.936,14.195,36.054,13,38.238,13c1.638,0,2.938,0.832,3.484,2.158h0.052c0.468-0.65,1.04-1.17,1.638-1.534
			C44.114,13.208,44.894,13,45.83,13c2.444,0,4.29,1.716,4.29,5.512V26h-3.848v-6.916c0-1.846-0.598-2.912-1.872-2.912
			c-0.91,0-1.56,0.624-1.82,1.378c-0.104,0.286-0.155,0.702-0.155,1.014V26h-3.849v-7.124c0-1.612-0.572-2.704-1.82-2.704
			c-1.014,0-1.612,0.78-1.846,1.43c-0.13,0.312-0.156,0.676-0.156,0.988V26h-3.848V17.342z"/>
		<path fill="#166692" d="M53.395,8.709c1.04-0.208,3.146-0.364,5.122-0.364c2.419,0,3.9,0.234,5.175,0.988
			c1.222,0.65,2.105,1.846,2.105,3.432c0,1.56-0.91,3.016-2.886,3.744v0.052c2.002,0.546,3.484,2.054,3.484,4.316
			c0,1.586-0.729,2.834-1.82,3.718c-1.274,1.014-3.406,1.586-6.891,1.586c-1.95,0-3.405-0.13-4.29-0.26V8.709z M57.322,15.417h1.3
			c2.08,0,3.198-0.858,3.198-2.158c0-1.326-1.015-2.028-2.809-2.028c-0.857,0-1.352,0.052-1.689,0.104V15.417z M57.322,23.192
			c0.39,0.052,0.857,0.052,1.534,0.052c1.794,0,3.38-0.676,3.38-2.522c0-1.768-1.586-2.47-3.563-2.47h-1.352V23.192z"/>
		<path fill="#166692" d="M81.683,19.5c0,4.654-3.302,6.786-6.708,6.786c-3.719,0-6.578-2.444-6.578-6.552
			c0-4.108,2.704-6.734,6.786-6.734C79.083,13,81.683,15.678,81.683,19.5z M72.479,19.63c0,2.184,0.91,3.822,2.6,3.822
			c1.534,0,2.522-1.534,2.522-3.822c0-1.898-0.729-3.822-2.522-3.822C73.181,15.808,72.479,17.758,72.479,19.63z"/>
		<path fill="#166692" d="M84.126,17.342c0-1.586-0.052-2.938-0.104-4.056h3.432l0.183,1.742h0.077
			C88.235,14.222,89.535,13,91.641,13c2.6,0,4.55,1.716,4.55,5.46V26h-3.952v-7.046c0-1.638-0.572-2.756-2.002-2.756
			c-1.092,0-1.742,0.754-2.002,1.482c-0.104,0.234-0.156,0.624-0.156,0.988V26h-3.952V17.342z"/>
		<path fill="#166692" d="M111.349,21.918c0,1.664,0.052,3.016,0.104,4.082h-3.433l-0.182-1.794h-0.078
			c-0.494,0.78-1.69,2.08-3.979,2.08c-2.573,0-4.472-1.612-4.472-5.538v-7.462h3.979v6.838c0,1.846,0.598,2.964,1.976,2.964
			c1.092,0,1.716-0.754,1.976-1.378c0.104-0.234,0.131-0.546,0.131-0.858v-7.566h3.978V21.918z"/>
		<path fill="#166692" d="M114.495,22.542c0.728,0.442,2.235,0.962,3.405,0.962c1.196,0,1.69-0.416,1.69-1.066
			s-0.39-0.962-1.872-1.456c-2.626-0.884-3.64-2.314-3.614-3.822c0-2.366,2.028-4.16,5.174-4.16c1.482,0,2.809,0.338,3.589,0.728
			l-0.702,2.73c-0.572-0.312-1.664-0.728-2.756-0.728c-0.963,0-1.509,0.39-1.509,1.04c0,0.598,0.494,0.91,2.055,1.456
			c2.418,0.832,3.432,2.054,3.458,3.926c0,2.366-1.872,4.108-5.513,4.108c-1.664,0-3.146-0.363-4.107-0.884L114.495,22.542z"/>
	</g>
</g>
</svg>
