<?xml version="1.0" encoding="utf-8"?>
<!-- Generator: Adobe Illustrator 15.1.0, SVG Export Plug-In . SVG Version: 6.00 Build 0)  -->
<!DOCTYPE svg PUBLIC "-//W3C//DTD SVG 1.1//EN" "http://www.w3.org/Graphics/SVG/1.1/DTD/svg11.dtd">
<svg version="1.1" id="Layer_1" xmlns="http://www.w3.org/2000/svg" xmlns:xlink="http://www.w3.org/1999/xlink" x="0px" y="0px"
	 width="123.5px" height="33px" viewBox="0 0 123.5 33" enable-background="new 0 0 123.5 33" xml:space="preserve">
<polygon fill="#F7CE2C" points="66.887,18.503 73.292,17.167 65.208,14.333 69.958,9.25 63,9.737 62.458,5 58.298,8.947 
	53.625,2.917 53.209,10.397 47.968,10.153 50.451,13.784 44.792,18.417 51.434,20.712 49.042,23.417 53.072,24.109 54.208,28.667 
	58.542,25 62.292,30.75 64.417,24.896 70.208,26.667 "/>
<path fill="#F89935" d="M62.542,32.92l-4.214-6.461l-4.687,3.966l-1.361-5.462l-5.128-0.882l2.586-2.923l-6.915-2.391l6.319-5.171
	l-3.083-4.508l6.231,0.29l0.507-9.124l5.613,7.244l4.797-4.551l0.658,5.752l8.501-0.595l-5.423,5.804l9.98,3.498l-8.691,1.814
	l3.654,8.98L65.018,26.1L62.542,32.92z M58.755,23.542l3.286,5.039l1.773-4.89l4.715,1.442l-2.988-7.347l4.118-0.859l-6.185-2.168
	l4.076-4.363l-5.415,0.379L61.71,7.054l-3.523,3.343L54.454,5.58l-0.324,5.837l-4.251-0.198l1.883,2.753l-5,4.092l6.369,2.203
	l-2.198,2.484l2.933,0.504l0.91,3.653L58.755,23.542z"/>
<path fill="#166692" d="M0.174,8.709c1.04-0.208,3.146-0.364,5.122-0.364c2.418,0,3.9,0.234,5.174,0.988
	c1.222,0.65,2.106,1.846,2.106,3.432c0,1.56-0.91,3.016-2.886,3.744v0.052c2.002,0.546,3.484,2.054,3.484,4.316
	c0,1.586-0.728,2.834-1.82,3.719c-1.274,1.014-3.406,1.586-6.89,1.586c-1.95,0-3.406-0.131-4.29-0.261V8.709z M4.1,15.417h1.3
	c2.08,0,3.198-0.858,3.198-2.158c0-1.326-1.014-2.028-2.808-2.028c-0.858,0-1.353,0.052-1.69,0.104V15.417z M4.1,23.191
	c0.39,0.053,0.858,0.053,1.534,0.053c1.794,0,3.38-0.676,3.38-2.521c0-1.769-1.586-2.471-3.562-2.471H4.1V23.191z"/>
<path fill="#166692" d="M28.462,19.5c0,4.654-3.302,6.786-6.708,6.786c-3.718,0-6.579-2.444-6.579-6.552
	c0-4.108,2.704-6.734,6.787-6.734C25.862,13,28.462,15.678,28.462,19.5z M19.258,19.63c0,2.185,0.91,3.822,2.6,3.822
	c1.534,0,2.522-1.534,2.522-3.822c0-1.897-0.728-3.822-2.522-3.822C19.96,15.808,19.258,17.758,19.258,19.63z"/>
<path fill="#166692" d="M30.905,17.342c0-1.586-0.052-2.938-0.104-4.056h3.328l0.182,1.716h0.078C34.936,14.195,36.054,13,38.238,13
	c1.638,0,2.938,0.832,3.484,2.158h0.052c0.468-0.65,1.04-1.17,1.638-1.534C44.114,13.208,44.894,13,45.83,13
	c2.444,0,4.29,1.716,4.29,5.512V26h-3.848v-6.916c0-1.846-0.598-2.912-1.872-2.912c-0.91,0-1.56,0.624-1.82,1.378
	c-0.104,0.286-0.155,0.702-0.155,1.015V26h-3.849v-7.124c0-1.612-0.572-2.704-1.82-2.704c-1.014,0-1.612,0.78-1.846,1.43
	c-0.13,0.313-0.156,0.676-0.156,0.988V26h-3.848v-8.658H30.905z"/>
<path fill="#166692" d="M53.395,8.709c1.04-0.208,3.146-0.364,5.122-0.364c2.419,0,3.9,0.234,5.174,0.988
	c1.223,0.65,2.105,1.846,2.105,3.432c0,1.56-0.91,3.016-2.886,3.744v0.052c2.002,0.546,3.483,2.054,3.483,4.316
	c0,1.586-0.729,2.834-1.819,3.719c-1.274,1.014-3.406,1.586-6.891,1.586c-1.95,0-3.405-0.131-4.29-0.261L53.395,8.709L53.395,8.709z
	 M57.322,15.417h1.3c2.08,0,3.198-0.858,3.198-2.158c0-1.326-1.015-2.028-2.809-2.028c-0.857,0-1.352,0.052-1.689,0.104V15.417
	L57.322,15.417z M57.322,23.191c0.39,0.053,0.857,0.053,1.534,0.053c1.794,0,3.38-0.676,3.38-2.521c0-1.769-1.586-2.471-3.563-2.471
	h-1.352L57.322,23.191L57.322,23.191z"/>
<path fill="#166692" d="M81.684,19.5c0,4.654-3.303,6.786-6.709,6.786c-3.719,0-6.578-2.444-6.578-6.552
	c0-4.108,2.705-6.734,6.787-6.734C79.083,13,81.684,15.678,81.684,19.5z M72.479,19.63c0,2.185,0.91,3.822,2.601,3.822
	c1.534,0,2.522-1.534,2.522-3.822c0-1.897-0.729-3.822-2.522-3.822C73.182,15.808,72.479,17.758,72.479,19.63z"/>
<path fill="#166692" d="M84.126,17.342c0-1.586-0.052-2.938-0.104-4.056h3.433l0.183,1.742h0.077C88.234,14.222,89.535,13,91.641,13
	c2.601,0,4.551,1.716,4.551,5.46V26h-3.953v-7.046c0-1.638-0.571-2.756-2.002-2.756c-1.092,0-1.741,0.754-2.002,1.481
	c-0.104,0.234-0.155,0.625-0.155,0.988V26h-3.952L84.126,17.342L84.126,17.342z"/>
<path fill="#166692" d="M111.35,21.918c0,1.664,0.051,3.016,0.104,4.082h-3.434l-0.182-1.794h-0.078
	c-0.494,0.78-1.689,2.08-3.979,2.08c-2.573,0-4.473-1.612-4.473-5.538v-7.462h3.979v6.838c0,1.847,0.598,2.964,1.976,2.964
	c1.092,0,1.717-0.754,1.977-1.378c0.104-0.233,0.131-0.546,0.131-0.858v-7.565h3.979V21.918L111.35,21.918z"/>
<path fill="#166692" d="M114.495,22.542c0.728,0.442,2.235,0.962,3.405,0.962c1.195,0,1.689-0.416,1.689-1.066
	c0-0.649-0.39-0.961-1.872-1.455c-2.626-0.885-3.64-2.314-3.614-3.822c0-2.366,2.028-4.16,5.174-4.16c1.482,0,2.81,0.338,3.59,0.728
	l-0.702,2.73c-0.572-0.312-1.664-0.728-2.756-0.728c-0.964,0-1.509,0.39-1.509,1.04c0,0.598,0.494,0.91,2.055,1.457
	c2.418,0.832,3.432,2.053,3.458,3.926c0,2.365-1.872,4.107-5.513,4.107c-1.664,0-3.146-0.363-4.107-0.884L114.495,22.542z"/>
</svg>
