<?xml version="1.0" encoding="utf-8"?>
<!-- Generator: Adobe Illustrator 15.1.0, SVG Export Plug-In . SVG Version: 6.00 Build 0)  -->
<!DOCTYPE svg PUBLIC "-//W3C//DTD SVG 1.1//EN" "http://www.w3.org/Graphics/SVG/1.1/DTD/svg11.dtd">
<svg version="1.1" id="Layer_1" xmlns="http://www.w3.org/2000/svg" xmlns:xlink="http://www.w3.org/1999/xlink" x="0px" y="0px"
	 width="100px" height="100px" viewBox="0 0 100 100" enable-background="new 0 0 100 100" xml:space="preserve">
<polygon fill-rule="evenodd" clip-rule="evenodd" fill="#00A651" points="15.833,67.119 100,67.119 100,99.94 15.833,99.94 
	15.833,67.119 "/>
<polygon fill-rule="evenodd" clip-rule="evenodd" fill="#ED1C24" points="15.833,0 100,0 100,67.091 15.833,67.091 15.833,0 "/>
<polygon fill-rule="evenodd" clip-rule="evenodd" fill="#FFFFFF" points="0,0 15.833,0 15.833,100.021 0,100.021 0,0 "/>
<polygon fill-rule="evenodd" clip-rule="evenodd" fill="#EF4123" points="5.014,18.259 4.486,18.259 4.486,16.757 3.959,16.757 
	3.959,15.254 3.343,15.254 3.343,16.757 2.727,16.757 2.727,18.259 2.287,18.259 2.287,20.388 2.727,20.388 2.727,21.891 
	3.343,21.891 3.343,23.393 3.959,23.393 3.959,21.891 4.486,21.891 4.486,20.388 5.014,20.388 5.014,18.259 "/>
<polygon fill-rule="evenodd" clip-rule="evenodd" fill="#EF4123" points="13.458,18.259 13.019,18.259 13.019,16.757 12.403,16.757 
	12.403,15.254 11.788,15.254 11.788,16.757 11.172,16.757 11.172,18.259 10.732,18.259 10.732,20.388 11.172,20.388 11.172,21.891 
	11.788,21.891 11.788,23.393 12.403,23.393 12.403,21.891 13.019,21.891 13.019,20.388 13.458,20.388 13.458,18.259 "/>
<polygon fill-rule="evenodd" clip-rule="evenodd" fill="#EF4123" points="10.556,18.259 10.028,18.259 10.028,16.757 9.412,16.757 
	9.412,15.254 8.796,15.254 8.796,16.757 8.269,16.757 8.269,18.259 8.093,18.259 7.741,18.259 7.653,18.259 7.653,16.757 
	7.037,16.757 7.037,15.254 6.421,15.254 6.421,16.757 5.806,16.757 5.806,18.259 5.366,18.259 5.366,20.388 5.806,20.388 
	5.806,21.891 6.421,21.891 6.421,23.393 7.037,23.393 7.037,21.891 7.653,21.891 7.653,20.388 7.741,20.388 8.093,20.388 
	8.269,20.388 8.269,21.891 8.796,21.891 8.796,23.393 9.412,23.393 9.412,21.891 10.028,21.891 10.028,20.388 10.556,20.388 
	10.556,18.259 "/>
<polygon fill-rule="evenodd" clip-rule="evenodd" fill="#EF4123" points="13.458,6.74 12.843,6.74 12.843,4.987 12.403,4.987 
	12.403,3.234 11.788,3.234 11.788,1.732 11.26,1.732 11.26,0.104 9.764,0.104 9.764,1.732 9.236,1.732 9.236,3.234 8.62,3.234 
	8.62,4.987 8.181,4.987 8.181,6.74 8.093,6.74 7.565,6.74 7.477,6.74 7.477,4.987 7.037,4.987 7.037,3.234 6.421,3.234 6.421,1.732 
	5.981,1.732 5.981,0.104 4.398,0.104 4.398,1.732 3.959,1.732 3.959,3.234 3.343,3.234 3.343,4.987 2.903,4.987 2.903,6.74 
	2.287,6.74 2.287,8.994 2.903,8.994 2.903,10.246 3.343,10.246 3.343,11.999 3.959,11.999 3.959,13.501 4.398,13.501 4.398,15.129 
	4.75,15.129 4.75,16.507 5.63,16.507 5.63,15.129 5.981,15.129 5.981,13.501 6.421,13.501 6.421,11.999 7.037,11.999 7.037,10.246 
	7.477,10.246 7.477,8.994 7.565,8.994 8.093,8.994 8.181,8.994 8.181,10.246 8.62,10.246 8.62,11.999 9.236,11.999 9.236,13.501 
	9.764,13.501 9.764,15.129 10.116,15.129 10.116,16.507 10.996,16.507 10.996,15.129 11.26,15.129 11.26,13.501 11.788,13.501 
	11.788,11.999 12.403,11.999 12.403,10.246 12.843,10.246 12.843,8.994 13.458,8.994 13.458,6.74 "/>
<polygon fill-rule="evenodd" clip-rule="evenodd" fill="#EF4123" points="5.014,80.738 4.486,80.738 4.486,82.241 3.959,82.241 
	3.959,83.743 3.343,83.743 3.343,82.241 2.727,82.241 2.727,80.738 2.287,80.738 2.287,78.609 2.727,78.609 2.727,77.232 
	3.343,77.232 3.343,75.729 3.959,75.729 3.959,77.232 4.486,77.232 4.486,78.609 5.014,78.609 5.014,80.738 "/>
<polygon fill-rule="evenodd" clip-rule="evenodd" fill="#EF4123" points="13.458,80.738 13.019,80.738 13.019,82.241 12.403,82.241 
	12.403,83.743 11.788,83.743 11.788,82.241 11.172,82.241 11.172,80.738 10.732,80.738 10.732,78.609 11.172,78.609 11.172,77.232 
	11.788,77.232 11.788,75.729 12.403,75.729 12.403,77.232 13.019,77.232 13.019,78.609 13.458,78.609 13.458,80.738 "/>
<polygon fill-rule="evenodd" clip-rule="evenodd" fill="#EF4123" points="10.556,80.738 10.028,80.738 10.028,82.241 9.412,82.241 
	9.412,83.743 8.796,83.743 8.796,82.241 8.269,82.241 8.269,80.738 8.093,80.738 7.741,80.738 7.653,80.738 7.653,82.241 
	7.037,82.241 7.037,83.743 6.421,83.743 6.421,82.241 5.806,82.241 5.806,80.738 5.366,80.738 5.366,78.609 5.806,78.609 
	5.806,77.232 6.421,77.232 6.421,75.729 7.037,75.729 7.037,77.232 7.653,77.232 7.653,78.609 7.741,78.609 8.093,78.609 
	8.269,78.609 8.269,77.232 8.796,77.232 8.796,75.729 9.412,75.729 9.412,77.232 10.028,77.232 10.028,78.609 10.556,78.609 
	10.556,80.738 "/>
<polygon fill-rule="evenodd" clip-rule="evenodd" fill="#EF4123" points="13.458,92.257 12.843,92.257 12.843,94.01 12.403,94.01 
	12.403,95.763 11.788,95.763 11.788,97.266 11.26,97.266 11.26,98.894 9.764,98.894 9.764,97.266 9.236,97.266 9.236,95.763 
	8.62,95.763 8.62,94.01 8.181,94.01 8.181,92.257 8.093,92.257 7.565,92.257 7.477,92.257 7.477,94.01 7.037,94.01 7.037,95.763 
	6.421,95.763 6.421,97.266 5.981,97.266 5.981,98.894 4.398,98.894 4.398,97.266 3.959,97.266 3.959,95.763 3.343,95.763 
	3.343,94.01 2.903,94.01 2.903,92.257 2.287,92.257 2.287,90.004 2.903,90.004 2.903,88.752 3.343,88.752 3.343,86.999 
	3.959,86.999 3.959,85.496 4.398,85.496 4.398,83.868 4.75,83.868 4.75,82.491 5.63,82.491 5.63,83.868 5.981,83.868 5.981,85.496 
	6.421,85.496 6.421,86.999 7.037,86.999 7.037,88.752 7.477,88.752 7.477,90.004 7.565,90.004 8.093,90.004 8.181,90.004 
	8.181,88.752 8.62,88.752 8.62,86.999 9.236,86.999 9.236,85.496 9.764,85.496 9.764,83.868 10.116,83.868 10.116,82.491 
	10.996,82.491 10.996,83.868 11.26,83.868 11.26,85.496 11.788,85.496 11.788,86.999 12.403,86.999 12.403,88.752 12.843,88.752 
	12.843,90.004 13.458,90.004 13.458,92.257 "/>
<polygon fill-rule="evenodd" clip-rule="evenodd" fill="#EF4123" points="12.315,38.418 12.315,36.79 12.843,36.79 12.843,35.037 
	13.195,35.037 13.195,33.535 13.547,33.535 13.547,30.655 13.107,30.655 13.107,28.902 12.755,28.902 12.755,27.525 12.403,27.525 
	12.403,25.897 11.963,25.897 11.963,24.395 11.435,24.395 11.435,23.393 10.996,23.393 10.996,21.891 10.292,21.891 10.292,23.393 
	9.764,23.393 9.764,24.395 9.324,24.395 9.324,25.897 8.884,25.897 8.884,27.525 8.445,27.525 8.445,28.902 8.093,28.902 
	8.093,29.904 7.653,29.904 7.653,28.902 7.301,28.902 7.301,27.525 6.949,27.525 6.949,25.897 6.509,25.897 6.509,24.395 
	6.07,24.395 6.07,23.393 5.542,23.393 5.542,21.891 4.838,21.891 4.838,23.393 4.31,23.393 4.31,24.395 3.871,24.395 3.871,25.897 
	3.431,25.897 3.431,27.525 3.079,27.525 3.079,28.902 2.727,28.902 2.727,30.655 2.199,30.655 2.199,33.535 2.551,33.535 
	2.551,35.037 2.991,35.037 2.991,36.79 3.519,36.79 3.519,38.418 4.222,38.418 4.222,36.79 4.75,36.79 4.75,35.037 5.19,35.037 
	5.19,33.41 4.486,33.41 4.486,31.907 5.63,31.907 5.63,33.16 6.334,33.16 6.334,34.912 6.949,34.912 6.949,36.79 6.421,36.79 
	6.421,38.292 6.07,38.292 6.07,39.795 5.718,39.795 5.718,41.298 5.19,41.298 5.19,42.675 4.838,42.675 4.838,43.802 4.31,43.802 
	4.31,45.43 3.606,45.43 3.606,43.677 3.167,43.677 3.167,42.299 2.727,42.299 2.727,41.172 2.287,41.172 2.287,44.804 2.727,44.804 
	2.727,46.306 3.079,46.306 3.079,47.308 3.519,47.308 3.519,48.935 3.959,48.935 3.959,50.063 3.519,50.063 3.519,51.69 
	3.079,51.69 3.079,52.691 2.727,52.691 2.727,54.194 2.287,54.194 2.287,57.825 2.727,57.825 2.727,56.698 3.167,56.698 
	3.167,55.321 3.606,55.321 3.606,53.568 4.31,53.568 4.31,55.195 4.838,55.195 4.838,56.322 5.19,56.322 5.19,57.7 5.718,57.7 
	5.718,59.202 6.07,59.202 6.07,60.705 6.421,60.705 6.421,62.208 6.949,62.208 6.949,64.086 6.334,64.086 6.334,65.839 5.63,65.839 
	5.63,67.091 4.486,67.091 4.486,65.588 5.19,65.588 5.19,63.961 4.75,63.961 4.75,62.208 4.222,62.208 4.222,60.58 3.519,60.58 
	3.519,62.208 2.991,62.208 2.991,63.961 2.551,63.961 2.551,65.463 2.199,65.463 2.199,68.343 2.727,68.343 2.727,70.096 
	3.079,70.096 3.079,71.473 3.431,71.473 3.431,73.101 3.871,73.101 3.871,74.604 4.31,74.604 4.31,75.729 4.838,75.729 
	4.838,77.107 5.542,77.107 5.542,75.729 6.07,75.729 6.07,74.604 6.509,74.604 6.509,73.101 6.949,73.101 6.949,71.473 
	7.301,71.473 7.301,70.096 7.653,70.096 7.653,69.094 8.093,69.094 8.093,70.096 8.445,70.096 8.445,71.473 8.884,71.473 
	8.884,73.101 9.324,73.101 9.324,74.604 9.764,74.604 9.764,75.729 10.292,75.729 10.292,77.107 10.996,77.107 10.996,75.729 
	11.435,75.729 11.435,74.604 11.963,74.604 11.963,73.101 12.403,73.101 12.403,71.473 12.755,71.473 12.755,70.096 13.107,70.096 
	13.107,68.343 13.547,68.343 13.547,65.463 13.195,65.463 13.195,63.961 12.843,63.961 12.843,62.208 12.315,62.208 12.315,60.58 
	11.523,60.58 11.523,62.208 10.996,62.208 10.996,63.961 10.644,63.961 10.644,65.588 11.26,65.588 11.26,67.091 10.116,67.091 
	10.116,65.839 9.5,65.839 9.5,64.086 8.796,64.086 8.796,62.208 9.324,62.208 9.324,60.705 9.676,60.705 9.676,59.202 
	10.028,59.202 10.028,57.7 10.556,57.7 10.556,56.322 10.996,56.322 10.996,55.195 11.523,55.195 11.523,53.568 12.227,53.568 
	12.227,55.321 12.667,55.321 12.667,56.698 13.019,56.698 13.019,57.825 13.458,57.825 13.458,54.194 13.107,54.194 13.107,52.691 
	12.667,52.691 12.667,51.69 12.227,51.69 12.227,50.063 11.788,50.063 11.788,48.935 12.227,48.935 12.227,47.308 12.667,47.308 
	12.667,46.306 13.107,46.306 13.107,44.804 13.458,44.804 13.458,41.172 13.019,41.172 13.019,42.299 12.667,42.299 12.667,43.677 
	12.227,43.677 12.227,45.43 11.523,45.43 11.523,43.802 10.996,43.802 10.996,42.675 10.556,42.675 10.556,41.298 10.028,41.298 
	10.028,39.795 9.676,39.795 9.676,38.292 9.324,38.292 9.324,36.79 8.796,36.79 8.796,34.912 9.5,34.912 9.5,33.16 10.116,33.16 
	10.116,31.907 11.26,31.907 11.26,33.41 10.644,33.41 10.644,35.037 10.996,35.037 10.996,36.79 11.523,36.79 11.523,38.418 
	12.315,38.418 "/>
</svg>
