<?xml version="1.0" encoding="utf-8"?>
<!-- Generator: Adobe Illustrator 15.1.0, SVG Export Plug-In . SVG Version: 6.00 Build 0)  -->
<!DOCTYPE svg PUBLIC "-//W3C//DTD SVG 1.1//EN" "http://www.w3.org/Graphics/SVG/1.1/DTD/svg11.dtd">
<svg version="1.1" id="layer" xmlns="http://www.w3.org/2000/svg" xmlns:xlink="http://www.w3.org/1999/xlink" x="0px" y="0px"
	 width="100px" height="100px" viewBox="0 0 100 100" enable-background="new 0 0 100 100" xml:space="preserve">
<circle fill="#156692" cx="50" cy="50.042" r="49.958"/>
<path fill="#14CE95" d="M86.206,15.531c-5.434,3.622-8.162,3.601-14.603,1.455c-5.955-1.984-10.583,1.307-16.435-1.455l3.448-6.897
	c5.889,0,8.355-0.729,13.656-3.379C77.486,7.832,82.202,11.312,86.206,15.531C86.206,15.531,82.202,11.312,86.206,15.531z"/>
<path fill="#14CE95" d="M46.548,8.634c-0.639,4.619-2.1,5.298-6.089,6.628c-3.044,1.015-3.782,6.691-5.981,8.891
	c-5.575,5.575-13.458,5.864-20.691,6.897c-0.784,3.634,0.156,5.329,2.554,7.728c1.774,1.774,0.894,5.37,0.894,7.791
	C9.511,41.418,6.869,39.606,3.89,30.653C9.054,18.347,18.925,8.618,31.306,3.634C36.116,7.377,40.633,7.648,46.548,8.634
	L46.548,8.634z"/>
<path fill="#14CE95" d="M49.997,56.913c-0.495,2.476-0.434,7.332-2.235,9.133c-2.876,2.876-6.386,4.82-6.386,8.972
	c0,4.006-3.256,5.028-6.387,7.377c-1.562,1.171-0.511,7.052-0.511,9.004c-11.548-1.962-8.621-19.107-8.621-27.588
	c-5.947-1.189-10.91-1.299-12.07-8.621c-1.022-6.452,4.45-9.624,8.621-13.794l3.449,6.897h12.07l5.173,8.621H49.997L49.997,56.913z"
	/>
<path fill="#14CE95" d="M93.62,25.583c9.413,16.792,8.341,37.499-2.759,53.228c-1.317-1.317-4.655-3.453-4.655-5.373
	c0-2.092,0.594-4.991-0.358-6.897c-1.733-3.466-6.539-9.987-6.539-13.794c0-5.032-1.006-10.669-7.6-9.021
	c-6.354,1.588-10.545-1.487-16.539-4.056c-0.367-2.573-2.986-10.808-1.187-12.608c5.213-5.213,6.956-4.635,14.406-4.635
	c1.974,0,2.502,4.183,4.022,5.173c1.813,1.181,6.162,1.027,8.295,1.382C84.924,29.686,89.733,27.17,93.62,25.583"/>
</svg>
