<?xml version="1.0" encoding="utf-8"?>
<!-- Generator: Adobe Illustrator 15.1.0, SVG Export Plug-In . SVG Version: 6.00 Build 0)  -->
<!DOCTYPE svg PUBLIC "-//W3C//DTD SVG 1.1//EN" "http://www.w3.org/Graphics/SVG/1.1/DTD/svg11.dtd">
<svg version="1.1" xmlns="http://www.w3.org/2000/svg" xmlns:xlink="http://www.w3.org/1999/xlink" x="0px" y="0px"
	 width="63.084px" height="50.917px" viewBox="0 0 63.084 50.917" enable-background="new 0 0 63.084 50.917" xml:space="preserve">
<g id="Layer_1">
	<path fill="#0E986E" d="M54.634,23.495L22.87,25.598l-0.022-0.926c-0.167-2.494-2.485-4.396-5.168-4.219l-0.796,0.053l-0.068-0.743
		l-0.63-9.506l0.795-0.053c0.001,0.001,0.003,0.001,0.004,0c2.702-0.18,4.748-2.372,4.581-4.889l-0.068-0.761l0.798-0.129
		l30.912-2.046l0.049,0.896c0.167,2.461,2.485,4.366,5.167,4.188l0.82-0.079l0.171,0.748l0.632,9.555l-0.977,0.026
		c-2.65,0.177-4.696,2.368-4.532,4.886c0.008,0.025,0.021,0.077,0.026,0.134L54.634,23.495z"/>
	<path fill="#0E986E" d="M61.635,24.393l-45.812,3.032l-1.582-23.89l45.812-3.031L61.635,24.393z M17.396,25.627l42.439-2.81
		L58.478,2.302L16.038,5.11L17.396,25.627z"/>
	<path fill="#FFFFFF" d="M37.529,22.61l-0.126-1.922c-1.362,0.028-2.7-0.249-3.499-0.643l0.451-2.406
		c0.88,0.409,2.103,0.755,3.417,0.667c1.153-0.076,2.475-0.389,2.501-1.363c0.037-1.277-1.372-1.23-2.905-1.637
		c-2.21-0.584-3.754-1.498-3.883-3.459c-0.118-1.78,1.044-3.259,3.181-3.826l-0.129-1.923l1.984-0.13l0.117,1.78
		c1.356-0.029,2.287,0.194,2.977,0.473l-0.434,2.326c-0.543-0.189-1.503-0.593-2.961-0.497c-1.313,0.086-2.639,0.285-2.581,1.284
		c0.068,1.213,1.696,1.009,3.46,1.542c2.463,0.69,3.505,1.739,3.627,3.561c0.117,1.799-1.052,3.42-3.353,3.979l0.138,2.063
		L37.529,22.61z"/>
</g>
<g id="Layer_1_copy">
	<polygon fill="#FFFFFF" points="60.703,34.38 16.063,31.333 15.766,26.474 15.453,22.442 16.434,7.621 60.797,10.13 	"/>
	<path fill="#0E986E" d="M54.314,33.071L22.54,31.132l0.096-0.922c0.151-2.494-1.908-4.676-4.592-4.839l-0.796-0.049l0.026-0.746
		l0.58-9.509l0.795,0.049c0.001,0.001,0.003,0.001,0.004,0c2.703,0.165,5.01-1.75,5.164-4.269l0.028-0.763l0.808-0.028l30.922,1.888
		l-0.066,0.895c-0.146,2.462,1.912,4.646,4.595,4.809l0.824,0.025l0.075,0.764l-0.585,9.558l-0.973-0.097
		c-2.649-0.161-4.958,1.753-5.114,4.272c0.006,0.026,0.01,0.079,0.01,0.137L54.314,33.071z"/>
	<path fill="#0E986E" d="M61.145,34.849l-45.826-2.797l1.458-23.898l45.826,2.798L61.145,34.849z M17.107,30.467l42.455,2.591
		l1.251-20.522L18.36,9.944L17.107,30.467z"/>
	<path fill="#FFFFFF" d="M40.25,20.57c-0.085-0.038-0.166-0.067-0.252-0.101l0.193-2.752c1.18,0.159,1.964,0.579,2.418,0.805
		l0.728-2.251c-0.65-0.365-1.544-0.704-2.894-0.847l0.109-1.781l-1.985-0.122l-0.116,1.922c-2.19,0.292-3.53,1.612-3.64,3.393
		c-0.113,1.85,1.146,2.932,3.067,3.77l-0.218,3.101c-1.07-0.168-2.023-0.577-2.719-1.014l-0.753,2.329
		c0.742,0.492,2.034,0.937,3.389,1.081l-0.117,1.922l1.981,0.121l0.126-2.064c2.351-0.263,3.718-1.723,3.829-3.521
		C43.507,22.739,42.605,21.567,40.25,20.57z M37.014,18.602c0.042-0.596,0.54-0.842,1.21-0.931l-0.147,2.126
		C37.41,19.543,36.969,19.24,37.014,18.602z M40.9,24.753c-0.09,0.575-0.622,0.837-1.268,0.956l0.167-2.375
		C40.532,23.626,41.021,23.975,40.9,24.753z"/>
</g>
<g id="Layer_2">
	<g>
		<path fill="#0E986E" d="M37.956,34.368c0.004-0.015,0.012-0.028,0.017-0.043C37.973,34.325,37.956,34.35,37.956,34.368z"/>
		<path fill="#0E986E" d="M16.77,39.251l3.081-4.317L0.644,33.058v0.001l8.029,17.539l3.176-4.451
			c12.568,7.194,24.603-3.911,26.124-11.758c-0.022,0-0.017-0.012-0.017-0.021C34.782,44.991,23.282,45.201,16.77,39.251z"/>
	</g>
</g>
</svg>
