<?xml version="1.0" encoding="utf-8"?>
<!-- Generator: Adobe Illustrator 15.1.0, SVG Export Plug-In  -->
<!DOCTYPE svg PUBLIC "-//W3C//DTD SVG 1.1//EN" "http://www.w3.org/Graphics/SVG/1.1/DTD/svg11.dtd" [
	<!ENTITY ns_flows "http://ns.adobe.com/Flows/1.0/">
]>
<svg version="1.1"
	 xmlns="http://www.w3.org/2000/svg" xmlns:xlink="http://www.w3.org/1999/xlink" xmlns:a="http://ns.adobe.com/AdobeSVGViewerExtensions/3.0/"
	 x="0px" y="0px" width="50px" height="282px" viewBox="0 -0.25 50 282" enable-background="new 0 -0.25 50 282"
	 xml:space="preserve">
<defs>
</defs>
<path d="M39.75,28.417c-3.723,0-6.75-3.028-6.75-6.75s3.027-6.75,6.75-6.75s6.75,3.028,6.75,6.75S43.473,28.417,39.75,28.417z
	 M39.75,16.917c-2.619,0-4.75,2.131-4.75,4.75s2.131,4.75,4.75,4.75s4.75-2.131,4.75-4.75S42.369,16.917,39.75,16.917z"/>
<rect x="42.978" y="26.972" transform="matrix(-0.707 -0.7072 0.7072 -0.707 59.3867 81.3734)" width="7.144" height="2.825"/>
<circle fill="none" stroke="#E68717" stroke-width="1.5" stroke-miterlimit="10" cx="8" cy="7.75" r="7"/>
<rect x="7.5" y="2.417" fill="#E68717" width="1" height="5.333"/>
<rect x="7.5" y="7.75" fill="#E68717" width="3.489" height="1"/>
<path fill="#156692" d="M5.248,39.605l-0.993-0.117c0.025-0.215,0.053-0.431,0.083-0.642c0.247-1.726,1.082-3.488,2.078-4.384
	c0.891-0.802,3.164-1.498,3.42-1.575l0.287-0.086l0.212,0.213c0.005,0.005,0.461,0.459,1.202,0.83c0.688,0.344,1.614,0.344,2.303,0
	c0.741-0.37,1.197-0.825,1.202-0.83l0.211-0.212l0.288,0.085c0.256,0.077,2.529,0.772,3.42,1.575
	c0.996,0.896,1.831,2.658,2.078,4.384l0.035,0.266l-0.98,0.223l-0.045-0.348c-0.248-1.736-1.084-3.177-1.756-3.782
	c-0.542-0.488-2-1.026-2.771-1.276c-0.244,0.206-0.669,0.528-1.233,0.81c-0.972,0.485-2.226,0.485-3.197,0
	c-0.564-0.282-0.989-0.604-1.233-0.81c-0.772,0.25-2.229,0.788-2.771,1.276c-0.672,0.605-1.508,2.046-1.756,3.783
	C5.299,39.191,5.272,39.399,5.248,39.605z"/>
<path fill="#156692" d="M12.686,33.841c-0.027,0-0.054,0-0.081,0c-0.352,0-1.012-0.059-1.488-0.457
	c-0.513-0.428-0.99-0.885-1.627-2.161c-0.411-0.822-0.664-1.264-0.769-1.441L8.25,29.5l-0.059-0.175
	c-0.008-0.023-0.193-0.583-0.193-1.158c0-0.438,0.208-0.773,0.417-0.984v-0.85c0-0.511,0-1.867,1.493-2.762
	c0.985-0.591,2.029-0.715,2.561-0.736v0c0.012,0,0.076,0,0.176-0.004c0.095,0.003,0.165,0.003,0.176,0.004v0
	c0.531,0.021,1.576,0.146,2.561,0.736c1.493,0.896,1.493,2.251,1.493,2.762v0.85c0.208,0.21,0.417,0.546,0.417,0.984
	c0,0.575-0.185,1.135-0.193,1.158L17.041,29.5l-0.47,0.282c-0.105,0.177-0.358,0.619-0.769,1.441
	c-0.638,1.275-1.114,1.733-1.627,2.161C13.698,33.781,13.038,33.841,12.686,33.841z M12.5,32.833l0.291,0.004
	c0.235-0.012,0.555-0.064,0.744-0.222c0.44-0.367,0.821-0.735,1.373-1.839c0.589-1.178,0.871-1.614,0.882-1.632l0.063-0.097
	l0.346-0.208c0.041-0.164,0.094-0.422,0.094-0.673c0-0.204-0.172-0.32-0.174-0.321L15.875,27.7v-1.367c0-0.486,0-1.3-1.007-1.905
	c-0.897-0.538-1.888-0.595-2.222-0.598c-0.334,0.002-1.325,0.059-2.222,0.598c-1.007,0.604-1.007,1.418-1.007,1.905V27.7
	l-0.243,0.146c-0.01,0.007-0.174,0.122-0.174,0.321c0,0.251,0.053,0.51,0.094,0.673l0.346,0.208l0.063,0.097
	c0.012,0.018,0.293,0.454,0.882,1.632c0.552,1.104,0.933,1.473,1.373,1.839c0.189,0.157,0.508,0.209,0.744,0.222V32.833z"/>
<path fill="#156692" d="M12.5,19.25c6.341,0,11.5,5.159,11.5,11.5c0,3.373-1.48,6.565-4.06,8.76c-2.078,1.767-4.72,2.74-7.439,2.74
	c-2.609,0-5.074-0.86-7.128-2.487C2.594,37.563,1,34.277,1,30.75C1,24.409,6.159,19.25,12.5,19.25 M12.5,18.25
	C5.596,18.25,0,23.847,0,30.75c0,3.974,1.86,7.507,4.751,9.797c2.131,1.688,4.819,2.703,7.749,2.703
	c3.086,0,5.907-1.125,8.087-2.979C23.284,37.979,25,34.567,25,30.75C25,23.847,19.404,18.25,12.5,18.25L12.5,18.25z"/>
</svg>
