<?xml version="1.0" standalone="no"?>
<!DOCTYPE svg PUBLIC "-//W3C//DTD SVG 20010904//EN"
 "http://www.w3.org/TR/2001/REC-SVG-20010904/DTD/svg10.dtd">
<svg version="1.0" xmlns="http://www.w3.org/2000/svg"
 width="200.000000pt" height="200.000000pt" viewBox="0 0 200.000000 200.000000"
 preserveAspectRatio="xMidYMid meet">
<metadata>
Created by potrace 1.11, written by Peter Selinger 2001-2013
</metadata>
<g transform="translate(0.000000,200.000000) scale(0.100000,-0.100000)"
fill="#000000" stroke="none">
<path d="M599 1878 c0 -24 -2 -61 -3 -83 -6 -82 -18 -321 -19 -350 -1 -34 -11
-44 -41 -40 -12 2 -88 6 -169 9 -118 5 -147 4 -141 -6 21 -35 111 -168 136
-200 16 -21 27 -42 23 -48 -3 -5 -65 -58 -138 -117 -73 -59 -134 -110 -137
-113 -3 -3 -22 -19 -43 -35 l-38 -28 45 -18 c26 -9 110 -38 189 -65 78 -26
146 -50 150 -54 5 -4 -24 -44 -63 -88 -81 -93 -89 -81 70 -107 167 -27 150
-12 187 -161 18 -71 34 -136 36 -144 2 -15 9 -20 25 -20 4 0 23 15 42 33 19
17 75 65 123 106 69 58 90 71 97 60 38 -63 226 -348 231 -349 5 0 18 35 100
264 22 60 40 111 42 112 6 6 334 -89 370 -108 12 -6 17 -5 17 5 0 8 -45 124
-99 258 l-99 244 46 12 c26 7 58 14 72 17 32 6 142 28 155 31 6 1 28 6 50 10
22 5 42 10 45 10 3 1 34 8 70 15 35 7 58 15 50 18 -34 10 -553 193 -557 196
-2 1 21 28 50 59 28 30 95 102 147 158 52 56 96 105 98 109 2 4 -12 7 -30 5
-18 -2 -76 -6 -128 -9 -109 -7 -240 -17 -287 -21 -20 -2 -33 2 -34 9 0 6 -2
18 -3 26 -5 23 -16 127 -23 200 -3 36 -8 70 -12 77 -4 7 -55 -35 -136 -112
-72 -68 -133 -124 -137 -125 -4 0 -76 88 -159 195 -83 107 -155 198 -160 201
-5 3 -9 -14 -10 -38z"/>
</g>
</svg>
